<svg width="22" height="14" viewBox="0 0 22 14" fill="none" xmlns="http://www.w3.org/2000/svg">
<path d="M20.9894 1.1563C20.8904 1.09452 20.7773 1.05896 20.6608 1.05294C20.5443 1.04693 20.4282 1.07067 20.3234 1.12192C16.6341 2.92661 13.9992 2.08098 11.214 1.18895C8.29211 0.253092 5.26281 -0.713705 1.07766 1.32989C0.960721 1.38598 0.862037 1.474 0.793 1.5838C0.723962 1.69359 0.687388 1.82066 0.6875 1.95036V12.2568C0.687484 12.3735 0.717147 12.4882 0.773699 12.5902C0.830251 12.6923 0.911831 12.7782 1.01076 12.84C1.10969 12.9018 1.22272 12.9374 1.33921 12.9435C1.4557 12.9496 1.57182 12.9259 1.67664 12.8747C5.36594 11.07 8.00078 11.9157 10.7903 12.8077C12.4438 13.3362 14.1281 13.875 16.0325 13.875C17.5012 13.875 19.103 13.5554 20.9232 12.6668C21.0388 12.6103 21.1363 12.5226 21.2045 12.4135C21.2727 12.3044 21.3089 12.1784 21.3091 12.0497V1.74325C21.3101 1.6263 21.2813 1.51102 21.2253 1.40831C21.1694 1.3056 21.0882 1.21886 20.9894 1.1563ZM19.9375 11.6123C16.4484 13.1738 13.9004 12.3591 11.2097 11.4989C9.55625 10.9704 7.87188 10.4315 5.9675 10.4315C4.62954 10.438 3.30519 10.7006 2.06594 11.205V2.38778C5.555 0.826295 8.10305 1.64098 10.7938 2.50122C13.4845 3.36145 16.2542 4.25004 19.9375 2.79684V11.6123ZM11 4.25005C10.4561 4.25005 9.92442 4.41133 9.47218 4.7135C9.01995 5.01568 8.66747 5.44517 8.45933 5.94767C8.25119 6.45016 8.19673 7.0031 8.30284 7.53654C8.40895 8.06999 8.67086 8.55999 9.05546 8.94459C9.44005 9.32918 9.93005 9.5911 10.4635 9.6972C10.997 9.80331 11.5499 9.74886 12.0524 9.54071C12.5549 9.33257 12.9844 8.9801 13.2865 8.52786C13.5887 8.07563 13.75 7.54394 13.75 7.00005C13.75 6.2707 13.4603 5.57123 12.9445 5.0555C12.4288 4.53978 11.7293 4.25005 11 4.25005ZM11 8.37504C10.7281 8.37504 10.4622 8.2944 10.2361 8.14332C10.01 7.99223 9.83374 7.77748 9.72967 7.52624C9.6256 7.27499 9.59837 6.99852 9.65142 6.7318C9.70448 6.46507 9.83543 6.22007 10.0277 6.02777C10.22 5.83548 10.465 5.70452 10.7318 5.65147C10.9985 5.59841 11.2749 5.62564 11.5262 5.72971C11.7774 5.83378 11.9922 6.01002 12.1433 6.23614C12.2944 6.46225 12.375 6.7281 12.375 7.00005C12.375 7.36472 12.2301 7.71445 11.9723 7.97232C11.7144 8.23018 11.3647 8.37504 11 8.37504ZM4.8125 4.25005V8.37504C4.8125 8.55738 4.74007 8.73225 4.61114 8.86118C4.48221 8.99011 4.30734 9.06254 4.125 9.06254C3.94266 9.06254 3.7678 8.99011 3.63886 8.86118C3.50993 8.73225 3.4375 8.55738 3.4375 8.37504V4.25005C3.4375 4.06771 3.50993 3.89284 3.63886 3.76391C3.7678 3.63498 3.94266 3.56255 4.125 3.56255C4.30734 3.56255 4.48221 3.63498 4.61114 3.76391C4.74007 3.89284 4.8125 4.06771 4.8125 4.25005ZM17.1875 9.75004V5.62505C17.1875 5.44271 17.2599 5.26784 17.3889 5.13891C17.5178 5.00998 17.6927 4.93755 17.875 4.93755C18.0573 4.93755 18.2322 5.00998 18.3611 5.13891C18.4901 5.26784 18.5625 5.44271 18.5625 5.62505V9.75004C18.5625 9.93238 18.4901 10.1073 18.3611 10.2362C18.2322 10.3651 18.0573 10.4375 17.875 10.4375C17.6927 10.4375 17.5178 10.3651 17.3889 10.2362C17.2599 10.1073 17.1875 9.93238 17.1875 9.75004Z" fill="black"/>
</svg>
