<svg width="20" height="20" viewBox="0 0 20 20" fill="none" xmlns="http://www.w3.org/2000/svg">
<path d="M18.9095 9.68751L10.375 1.15305C10.2478 1.02482 10.0963 0.923148 9.92949 0.853956C9.76263 0.784764 9.58369 0.74943 9.40305 0.750007H1.43751C1.25517 0.750007 1.0803 0.82244 0.951371 0.951371C0.82244 1.0803 0.750007 1.25517 0.750007 1.43751V9.40305C0.74943 9.58369 0.784764 9.76263 0.853956 9.92949C0.923148 10.0963 1.02482 10.2478 1.15305 10.375L9.68751 18.9095C9.81519 19.0372 9.96678 19.1385 10.1336 19.2076C10.3005 19.2767 10.4793 19.3123 10.6599 19.3123C10.8405 19.3123 11.0193 19.2767 11.1862 19.2076C11.353 19.1385 11.5046 19.0372 11.6323 18.9095L18.9095 11.6323C19.0372 11.5046 19.1385 11.353 19.2076 11.1862C19.2767 11.0193 19.3123 10.8405 19.3123 10.6599C19.3123 10.4793 19.2767 10.3005 19.2076 10.1336C19.1385 9.96678 19.0372 9.81519 18.9095 9.68751ZM10.6595 17.9375L2.12501 9.40305V2.12501H9.40305L17.9375 10.6595L10.6595 17.9375ZM6.25001 5.21876C6.25001 5.42272 6.18953 5.6221 6.07621 5.79169C5.96289 5.96128 5.80184 6.09345 5.6134 6.17151C5.42496 6.24956 5.21761 6.26998 5.01757 6.23019C4.81753 6.1904 4.63378 6.09218 4.48955 5.94796C4.34533 5.80374 4.24711 5.61999 4.20732 5.41994C4.16753 5.2199 4.18795 5.01255 4.26601 4.82411C4.34406 4.63568 4.47624 4.47462 4.64582 4.3613C4.81541 4.24799 5.01479 4.18751 5.21876 4.18751C5.49226 4.18751 5.75456 4.29616 5.94796 4.48955C6.14136 4.68295 6.25001 4.94525 6.25001 5.21876Z" fill="black"/>
</svg>
