<svg width="20" height="18" viewBox="0 0 20 18" fill="none" xmlns="http://www.w3.org/2000/svg">
<path d="M9.56891 8.61414C9.63204 8.70716 9.6714 8.81425 9.68354 8.92602C9.69568 9.03779 9.68021 9.15083 9.63852 9.25523L8.26352 12.6927C8.19548 12.8621 8.06296 12.9975 7.89511 13.0691C7.72726 13.1407 7.53782 13.1428 7.36848 13.0747C7.19913 13.0067 7.06375 12.8742 6.99211 12.7063C6.92047 12.5385 6.91845 12.349 6.98648 12.1797L7.98422 9.6875H6.25C6.13732 9.68769 6.02632 9.66019 5.92677 9.60741C5.82722 9.55463 5.74217 9.47819 5.6791 9.38482C5.61603 9.29144 5.57688 9.184 5.56509 9.07194C5.5533 8.95988 5.56923 8.84664 5.61148 8.74219L6.98648 5.30469C7.02034 5.22084 7.07038 5.14447 7.13375 5.07996C7.19712 5.01545 7.27257 4.96405 7.3558 4.9287C7.43903 4.89335 7.52841 4.87474 7.61884 4.87393C7.70926 4.87312 7.79896 4.89013 7.88281 4.92398C7.96666 4.95784 8.04303 5.00788 8.10754 5.07125C8.17205 5.13462 8.22345 5.21007 8.2588 5.2933C8.29415 5.37653 8.31276 5.46591 8.31357 5.55634C8.31438 5.64676 8.29737 5.73646 8.26352 5.82031L7.26578 8.3125H9C9.11225 8.31252 9.22278 8.34002 9.32195 8.3926C9.42112 8.44518 9.50591 8.52124 9.56891 8.61414ZM19.3125 5.44477V12.4375C19.3125 12.9845 19.0952 13.5091 18.7084 13.8959C18.3216 14.2827 17.797 14.5 17.25 14.5C16.703 14.5 16.1784 14.2827 15.7916 13.8959C15.4048 13.5091 15.1875 12.9845 15.1875 12.4375V9C15.1875 8.81766 15.1151 8.6428 14.9861 8.51386C14.8572 8.38493 14.6823 8.3125 14.5 8.3125H13.125V15.875H14.5C14.6823 15.875 14.8572 15.9474 14.9861 16.0764C15.1151 16.2053 15.1875 16.3802 15.1875 16.5625C15.1875 16.7448 15.1151 16.9197 14.9861 17.0486C14.8572 17.1776 14.6823 17.25 14.5 17.25H0.75C0.567664 17.25 0.392795 17.1776 0.263864 17.0486C0.134933 16.9197 0.0625 16.7448 0.0625 16.5625C0.0625 16.3802 0.134933 16.2053 0.263864 16.0764C0.392795 15.9474 0.567664 15.875 0.75 15.875H2.125V2.8125C2.125 2.26549 2.3423 1.74089 2.72909 1.35409C3.11589 0.967299 3.64049 0.75 4.1875 0.75H11.0625C11.6095 0.75 12.1341 0.967299 12.5209 1.35409C12.9077 1.74089 13.125 2.26549 13.125 2.8125V6.9375H14.5C15.047 6.9375 15.5716 7.1548 15.9584 7.54159C16.3452 7.92839 16.5625 8.45299 16.5625 9V12.4375C16.5625 12.6198 16.6349 12.7947 16.7639 12.9236C16.8928 13.0526 17.0677 13.125 17.25 13.125C17.4323 13.125 17.6072 13.0526 17.7361 12.9236C17.8651 12.7947 17.9375 12.6198 17.9375 12.4375V5.44477C17.937 5.26327 17.8647 5.08935 17.7364 4.96094L16.0761 3.29891C15.9471 3.1699 15.8746 2.99494 15.8746 2.8125C15.8746 2.63006 15.9471 2.4551 16.0761 2.32609C16.2051 2.19709 16.3801 2.12462 16.5625 2.12462C16.7449 2.12462 16.9199 2.19709 17.0489 2.32609L18.7109 3.98641C18.9026 4.17771 19.0544 4.40508 19.1576 4.65539C19.2609 4.9057 19.3135 5.174 19.3125 5.44477ZM11.75 15.875V2.8125C11.75 2.63016 11.6776 2.4553 11.5486 2.32636C11.4197 2.19743 11.2448 2.125 11.0625 2.125H4.1875C4.00516 2.125 3.8303 2.19743 3.70136 2.32636C3.57243 2.4553 3.5 2.63016 3.5 2.8125V15.875H11.75Z" fill="black"/>
</svg>
