<svg width="18" height="18" viewBox="0 0 18 18" fill="none" xmlns="http://www.w3.org/2000/svg">
<path d="M15.875 0.4375H2.125C1.76033 0.4375 1.41059 0.582366 1.15273 0.840228C0.894866 1.09809 0.75 1.44783 0.75 1.8125V6.625C0.75 11.1556 2.94313 13.9013 4.78305 15.407C6.76477 17.0277 8.73617 17.5786 8.82211 17.6009C8.94027 17.6331 9.06488 17.6331 9.18305 17.6009C9.26898 17.5786 11.2378 17.0277 13.2221 15.407C15.0569 13.9013 17.25 11.1556 17.25 6.625V1.8125C17.25 1.44783 17.1051 1.09809 16.8473 0.840228C16.5894 0.582366 16.2397 0.4375 15.875 0.4375ZM15.875 6.625C15.875 9.8107 14.7011 12.3966 12.3859 14.3095C11.3781 15.1394 10.232 15.7853 9 16.2173C7.78416 15.7928 6.65214 15.1584 5.65531 14.343C3.31266 12.4266 2.125 9.83047 2.125 6.625V1.8125H15.875V6.625Z" fill="black"/>
</svg>
