<svg width="20" height="15" viewBox="0 0 20 15" fill="none" xmlns="http://www.w3.org/2000/svg">
<path d="M8.82532 10.2636L17.0753 2.01362C17.1392 1.94975 17.215 1.89908 17.2985 1.86451C17.3819 1.82994 17.4714 1.81215 17.5617 1.81215C17.6521 1.81215 17.7415 1.82994 17.825 1.86451C17.9084 1.89908 17.9843 1.94975 18.0481 2.01362C18.112 2.0775 18.1627 2.15333 18.1972 2.23679C18.2318 2.32024 18.2496 2.40969 18.2496 2.50003C18.2496 2.59036 18.2318 2.67981 18.1972 2.76327C18.1627 2.84673 18.112 2.92256 18.0481 2.98643L9.79813 11.2364C9.73426 11.3003 9.65842 11.351 9.57497 11.3855C9.49151 11.4201 9.40206 11.4379 9.31172 11.4379C9.22139 11.4379 9.13194 11.4201 9.04848 11.3855C8.96503 11.351 8.88919 11.3003 8.82532 11.2364C8.76144 11.1726 8.71077 11.0967 8.6762 11.0133C8.64163 10.9298 8.62384 10.8404 8.62384 10.75C8.62384 10.6597 8.64163 10.5702 8.6762 10.4868C8.71077 10.4033 8.76144 10.3275 8.82532 10.2636ZM9.99922 4.56253C10.5964 4.56177 11.1897 4.65843 11.7558 4.8487C11.8417 4.87917 11.9329 4.89224 12.0239 4.88715C12.115 4.88205 12.2041 4.8589 12.2861 4.81903C12.3681 4.77916 12.4414 4.72338 12.5016 4.65493C12.5619 4.58648 12.6079 4.50673 12.637 4.42032C12.6661 4.33391 12.6778 4.24257 12.6713 4.15161C12.6648 4.06066 12.6402 3.97191 12.5991 3.89053C12.5579 3.80915 12.501 3.73677 12.4316 3.67761C12.3622 3.61844 12.2818 3.57366 12.1949 3.54589C11.0993 3.17653 9.92828 3.08945 8.7901 3.29269C7.65192 3.49593 6.58338 3.98294 5.68333 4.70865C4.78327 5.43437 4.08078 6.37535 3.64083 7.44455C3.20088 8.51376 3.03768 9.67665 3.16633 10.8257C3.18493 10.9937 3.2648 11.149 3.39068 11.2619C3.51655 11.3748 3.67961 11.4373 3.84868 11.4375C3.8736 11.4375 3.89938 11.4375 3.92516 11.4332C4.10635 11.4131 4.27213 11.3219 4.38607 11.1796C4.50001 11.0373 4.55276 10.8556 4.53274 10.6744C4.51037 10.4712 4.49918 10.2669 4.49922 10.0625C4.50082 8.60433 5.08079 7.2063 6.1119 6.1752C7.143 5.14409 8.54102 4.56412 9.99922 4.56253ZM18.5706 5.67972C18.5294 5.59936 18.4728 5.52791 18.404 5.46944C18.3352 5.41096 18.2556 5.36662 18.1696 5.33893C18.0837 5.31124 17.9931 5.30074 17.9031 5.30805C17.8131 5.31536 17.7254 5.34032 17.6451 5.38151C17.5647 5.4227 17.4933 5.47932 17.4348 5.54813C17.3763 5.61693 17.332 5.69658 17.3043 5.78253C17.2766 5.86847 17.2661 5.95903 17.2734 6.04903C17.2807 6.13903 17.3057 6.22671 17.3469 6.30706C17.8555 7.30589 18.1559 8.39766 18.2297 9.51611C18.3036 10.6346 18.1494 11.7563 17.7766 12.8134L2.21329 12.8074C1.77907 11.5627 1.64867 10.2322 1.83296 8.9269C2.01725 7.62159 2.51089 6.37923 3.27273 5.3034C4.03457 4.22758 5.04254 3.34944 6.21262 2.7422C7.38269 2.13496 8.68097 1.81622 9.99922 1.81253H10.0749C11.3553 1.82058 12.6158 2.12968 13.7547 2.71487C13.8353 2.75922 13.9239 2.78694 14.0154 2.79641C14.1069 2.80588 14.1993 2.7969 14.2873 2.77C14.3752 2.7431 14.4569 2.69882 14.5274 2.6398C14.5979 2.58077 14.6559 2.5082 14.6979 2.42637C14.7399 2.34454 14.765 2.25512 14.7718 2.1634C14.7786 2.07168 14.7669 1.97954 14.7375 1.89241C14.708 1.80528 14.6614 1.72495 14.6003 1.65617C14.5393 1.58739 14.4651 1.53156 14.382 1.49198C12.6675 0.613806 10.729 0.270279 8.81715 0.505837C6.9053 0.741395 5.10811 1.5452 3.65806 2.81328C2.20802 4.08135 1.17182 5.75535 0.683518 7.61874C0.195215 9.48213 0.27727 11.4492 0.919068 13.2654C1.01387 13.5345 1.1897 13.7676 1.42237 13.9328C1.65504 14.0979 1.93314 14.1869 2.21844 14.1875H17.7791C18.0643 14.1877 18.3425 14.0992 18.5751 13.9343C18.8078 13.7694 18.9834 13.5363 19.0777 13.2671C19.5113 12.0339 19.6899 10.7254 19.6028 9.42097C19.5156 8.11659 19.1645 6.84349 18.5706 5.67886V5.67972Z" fill="black"/>
</svg>
